<?xml version="1.0" encoding="UTF-8"?>
<!DOCTYPE svg PUBLIC "-//W3C//DTD SVG 1.1//EN" "http://www.w3.org/Graphics/SVG/1.1/DTD/svg11.dtd">
<!-- Creator: CorelDRAW 2021.5 -->
<svg xmlns="http://www.w3.org/2000/svg" xml:space="preserve" width="210mm" height="297mm" version="1.1" style="shape-rendering:geometricPrecision; text-rendering:geometricPrecision; image-rendering:optimizeQuality; fill-rule:evenodd; clip-rule:evenodd"
viewBox="0 0 21000 29700"
 xmlns:xlink="http://www.w3.org/1999/xlink"
 xmlns:xodm="http://www.corel.com/coreldraw/odm/2003">
 <defs>
  <style type="text/css">
   <![CDATA[
    .fil16 {fill:#2A9BED}
    .fil7 {fill:#515C61}
    .fil30 {fill:#55A5DE}
    .fil26 {fill:#56656B}
    .fil17 {fill:#5D5D5D}
    .fil28 {fill:#5F7668}
    .fil18 {fill:#605F62}
    .fil31 {fill:#646C71}
    .fil33 {fill:#66584F}
    .fil36 {fill:#72C9DE}
    .fil29 {fill:#756A61}
    .fil27 {fill:#91D4B5}
    .fil39 {fill:#93CFFC}
    .fil9 {fill:#95CCF3}
    .fil34 {fill:#985836}
    .fil21 {fill:#9ACFF5}
    .fil11 {fill:#9CD3F5}
    .fil5 {fill:#A4B5BA}
    .fil19 {fill:#A5CCE7}
    .fil42 {fill:#B3AEA9}
    .fil45 {fill:#B9C5C9}
    .fil35 {fill:#C7D5DD}
    .fil32 {fill:#CDDDE6}
    .fil47 {fill:#D3EFFB}
    .fil44 {fill:#D5C7B8}
    .fil25 {fill:#D5D5D5}
    .fil15 {fill:#D6EEF6}
    .fil13 {fill:#D7EFFB}
    .fil23 {fill:#DCDBD7}
    .fil37 {fill:#DCEEF6}
    .fil20 {fill:#DCF3F7}
    .fil12 {fill:#DFF3FB}
    .fil6 {fill:#E3764E}
    .fil14 {fill:#E3F3FB}
    .fil10 {fill:#E7F7FA}
    .fil41 {fill:#E8F3FB}
    .fil22 {fill:#EBF6FD}
    .fil46 {fill:#ECF4F5}
    .fil43 {fill:#EDFDFF}
    .fil3 {fill:#F3F7FB}
    .fil0 {fill:whitesmoke}
    .fil2 {fill:#F5FEFF}
    .fil38 {fill:#F7ECD2}
    .fil40 {fill:#F7FBF6}
    .fil8 {fill:#F9FBFB}
    .fil4 {fill:#FBFFFF}
    .fil24 {fill:#FCDA87}
    .fil1 {fill:white}
   ]]>
  </style>
   <clipPath id="id0">
    <rect x="4874.03" y="6114" width="11147.78" height="10371.66"/>
   </clipPath>
 </defs>
 <g id="Layer_x0020_1">
  <metadata id="CorelCorpID_0Corel-Layer"/>
  <g style="clip-path:url(#id0)">
   <image x="4874.03" y="6114" width="11147.78" height="10371.66" xlink:href="ufo_Images\ufo_ImgID1.png"/>
  </g>
  <g id="_2265649051904">
   <g>
    <path class="fil0" d="M9665.11 13153.06c135.59,-46.72 135.89,-63.36 168.39,-190.1 -127.51,-3.13 -142.51,62.45 -168.39,190.1z"/>
    <polygon class="fil0" points="14363.75,10127.96 14363.75,10065.11 14306.58,10052.3 "/>
   </g>
   <g>
    <path class="fil1" d="M7731.53 9006.78c-51.26,-28.8 -37.34,-17.12 -105.83,-35.28l0 282.22 70.55 0c0,-148.45 -14.83,-142.51 35.28,-246.94z"/>
    <path class="fil1" d="M14010.98 11511.5c-80.4,-109.73 -94.3,-70.56 -282.23,-70.56l110.6 65.79c44.52,9.67 123.39,4.77 171.63,4.77z"/>
    <polygon class="fil1" points="8648.75,10664.83 8754.59,10664.83 8754.59,10594.27 8648.75,10594.27 "/>
    <polygon class="fil1" points="14645.98,10559 14681.25,10559 14681.25,10453.16 14645.98,10453.16 "/>
    <path class="fil1" d="M14187.37 11440.94c-54.18,-77.96 -5.79,-43.84 -105.84,-70.55 55.61,80.02 6.65,41.21 105.84,70.55z"/>
    <path class="fil1" d="M8437.09 10276.78c7.43,40.24 77.55,77.13 47.47,7.13 -12.7,-29.56 -64.41,-98.75 -47.47,-7.13z"/>
    <path class="fil1" d="M13340.7 11546.77c36.23,36.24 127.6,-50.76 40.91,-19.03 -0.85,0.31 -100.13,-40.18 -40.91,19.03z"/>
    <path class="fil1" d="M9248.48 8265.94c36.23,36.24 127.6,-50.76 40.91,-19.03 -0.85,0.31 -100.13,-40.18 -40.91,19.03z"/>
    <path class="fil1" d="M8966.25 10594.27c36.24,36.24 127.61,-50.76 40.92,-19.03 -0.86,0.32 -100.13,-40.18 -40.92,19.03z"/>
    <path class="fil1" d="M12352.92 6537.33c0,41.47 75.91,79.49 54.61,0 -21.36,-79.7 89.75,-0.96 -16.29,-10.45 -44.43,-3.99 -38.32,-61.26 -38.32,10.45z"/>
    <path class="fil1" d="M7978.48 10417.89c0,41.47 75.91,79.48 54.6,0 -21.36,-79.71 89.75,-0.96 -16.29,-10.46 -44.43,-3.98 -38.31,-61.26 -38.31,10.46z"/>
    <path class="fil1" d="M8295.98 10276.78c0,41.47 75.91,79.48 54.6,0 -21.36,-79.71 89.75,-0.96 -16.29,-10.46 -44.43,-3.98 -38.31,-61.26 -38.31,10.46z"/>
    <path class="fil1" d="M14645.98 10312.05c0,87.65 56.4,9.02 21.88,0 -0.43,-0.11 -21.88,-100.08 -21.88,0z"/>
    <path class="fil1" d="M8119.59 10135.66c0,87.65 56.4,9.02 21.88,0 -0.43,-0.11 -21.88,-100.08 -21.88,0z"/>
    <polygon class="fil1" points="14575.42,10206.22 14575.42,10170.94 14534.26,10200.34 "/>
    <polygon class="fil1" points="7907.92,9853.44 7872.64,9853.44 7902.04,9894.6 "/>
    <polygon class="fil1" points="14434.31,10065.11 14469.59,10065.11 14440.19,10023.95 "/>
    <polygon class="fil1" points="14610.7,10206.22 14645.98,10206.22 14616.58,10165.06 "/>
    <polygon class="fil1" points="8154.86,10029.83 8154.86,10065.11 8196.02,10035.71 "/>
    <polygon class="fil1" points="7555.14,14474.83 7555.14,14510.11 7596.3,14480.71 "/>
    <polygon class="fil1" points="13517.09,11546.77 13517.09,11582.05 13558.24,11552.65 "/>
    <polygon class="fil1" points="14681.25,10770.66 14716.53,10770.66 14687.13,10729.51 "/>
    <polygon class="fil1" points="8154.86,10029.83 8154.86,9994.55 8113.71,10023.95 "/>
    <polygon class="fil1" points="13517.09,11546.77 13517.09,11511.5 13475.93,11540.89 "/>
    <polygon class="fil1" points="8154.86,14651.22 8154.86,14686.49 8196.02,14657.1 "/>
    <path class="fil1" d="M6144.03 13734c3.51,3.5 10.5,-15.48 10.51,-10.53l0.02 0.01c-0.7,0.68 -14.04,7.01 -10.53,10.52z"/>
    <path class="fil1" d="M6179.31 13592.88c3.51,3.51 10.5,-15.47 10.51,-10.52l0.02 0.01c-0.7,0.68 -14.04,7.01 -10.53,10.51z"/>
    <path class="fil1" d="M8507.64 14510.11l10.53 -10.52c-0.7,0.68 -14.04,7.01 -10.53,10.52z"/>
    <path class="fil1" d="M7943.2 11052.89l10.53 -10.52c-0.7,0.68 -14.04,7.01 -10.53,10.52z"/>
    <path class="fil1" d="M8049.03 8548.17l10.53 -10.52c-0.7,0.68 -14.04,7.01 -10.53,10.52z"/>
    <path class="fil1" d="M13446.53 9077.33l10.53 -10.51c-0.7,0.68 -14.04,7 -10.53,10.51z"/>
    <path class="fil1" d="M7766.81 8936.22l10.53 -10.51c-0.7,0.68 -14.04,7 -10.53,10.51z"/>
    <path class="fil1" d="M7766.81 9888.72l10.53 -10.51c-0.7,0.68 -14.04,7 -10.53,10.51z"/>
    <path class="fil1" d="M12987.92 11582.05l10.53 -10.51c-0.7,0.68 -14.04,7 -10.53,10.51z"/>
    <path class="fil1" d="M9389.59 8230.67l10.52 -10.52c-0.69,0.68 -14.03,7.01 -10.52,10.52z"/>
    <path class="fil1" d="M7766.81 8830.39l10.53 -10.52c-0.7,0.69 -14.04,7.01 -10.53,10.52z"/>
    <path class="fil1" d="M7696.25 8936.22l10.53 -10.51c-0.7,0.68 -14.03,7 -10.53,10.51z"/>
    <path class="fil1" d="M7696.25 9853.44l10.53 -10.51c-0.7,0.68 -14.03,7 -10.53,10.51z"/>
    <path class="fil1" d="M9177.92 8265.94l10.53 -10.51c-0.7,0.68 -14.04,7.01 -10.53,10.51z"/>
    <path class="fil1" d="M12987.92 8089.55l10.53 -10.51c-0.7,0.68 -14.04,7.01 -10.53,10.51z"/>
    <path class="fil1" d="M13799.31 9359.55l10.53 -10.51c-0.7,0.68 -14.04,7.01 -10.53,10.51z"/>
    <path class="fil1" d="M14152.09 11546.77l10.53 -10.51c-0.7,0.68 -14.04,7.01 -10.53,10.51z"/>
    <path class="fil1" d="M14152.09 9677.05l10.53 -10.51c-0.7,0.68 -14.04,7.01 -10.53,10.51z"/>
    <path class="fil1" d="M13869.87 9394.83l10.52 -10.51c-0.69,0.68 -14.03,7 -10.52,10.51z"/>
    <path class="fil1" d="M8119.59 8618.72l10.52 -10.51c-0.69,0.68 -14.03,7 -10.52,10.51z"/>
    <path class="fil1" d="M13728.75 9430.11l10.53 -10.52c-0.7,0.69 -14.03,7.01 -10.53,10.52z"/>
    <path class="fil1" d="M13199.59 8195.39l10.52 -10.52c-0.69,0.69 -14.03,7.01 -10.52,10.52z"/>
    <path class="fil1" d="M13411.25 9359.55l10.53 -10.51c-0.7,0.68 -14.03,7.01 -10.53,10.51z"/>
    <path class="fil1" d="M13058.48 11546.77l10.52 -10.51c-0.69,0.68 -14.03,7.01 -10.52,10.51z"/>
    <path class="fil1" d="M8295.98 14686.49l10.52 -10.51c-0.69,0.68 -14.03,7.01 -10.52,10.51z"/>
    <path class="fil1" d="M9072.09 14721.77l10.52 -10.51c-0.69,0.68 -14.03,7.01 -10.52,10.51z"/>
    <path class="fil1" d="M13869.87 9677.05l10.52 -10.51c-0.69,0.68 -14.03,7.01 -10.52,10.51z"/>
    <polygon class="fil1" points="14399.03,10065.11 14363.75,10065.11 "/>
    <polygon class="fil1" points="14681.25,10770.66 14640.68,10839.46 "/>
    <polygon class="fil1" points="7555.14,14474.83 7555.14,14439.55 "/>
    <polygon class="fil1" points="14434.31,10065.11 14399.03,10065.11 "/>
    <polygon class="fil1" points="7766.81,9006.78 7731.53,9006.78 "/>
    <polygon class="fil1" points="13481.81,9465.39 13522.38,9396.6 "/>
    <polygon class="fil1" points="14575.42,10276.78 14540.14,10312.05 "/>
    <polygon class="fil1" points="6779.03,14016.22 6703.18,14035.62 "/>
    <polygon class="fil1" points="14645.98,10982.33 14686.55,10913.54 "/>
    <polygon class="fil1" points="8013.75,9853.44 8013.75,9818.16 "/>
    <polygon class="fil1" points="7907.92,9853.44 7948.49,9784.65 "/>
   </g>
   <g>
    <path class="fil2" d="M11915.54 6640.7l49.32 2.47 -29.39 41.15 -19.93 -43.62zm0 0c-13.45,115.61 -2.92,104.17 84.6,151.94 97.31,-55.8 109.87,-67.29 61.44,-184.75 -116.91,-20.36 -66.11,-26.09 -146.04,32.81z"/>
    <path class="fil2" d="M7343.47 14333.72l105.84 35.27c-44.78,-27.16 -48.15,-4.36 -6.35,-35.27l-49.67 -47.52 -49.82 47.52z"/>
   </g>
   <g>
    <path class="fil3" d="M8401.81 14404.27zm-179.03 105.84l179.03 -105.84zm-179.03 105.84c50.72,28.62 52.1,5.27 2.64,35.27l0 70.56c376.76,-31.35 132.43,92.45 279.02,46.47 62.88,-19.72 30.85,6.85 29.12,-45.5 -4.94,-149.75 -169.65,13.39 -61.2,-212.64l-70.55 0c26.79,-47.01 22.67,-37.68 35.28,-105.83l-47.55 -44.02 -166.76 255.69z"/>
    <path class="fil3" d="M5306.17 11051.2l128.55 107.52c-3.83,184.75 -34.85,198.18 -240.31,161.1l-3.52 -198.99 115.28 -69.63zm-149.92 36.96l0 282.23 282.22 0c28.99,-124.4 35.28,-115.91 35.28,-282.23 -74.21,-24.6 -36.06,-7.97 -70.55,-70.55 -127.07,2.83 -169.74,24.26 -246.95,70.55z"/>
    <path class="fil3" d="M15411.7 8105.32c-63.81,-187.47 4.49,-248.78 212.62,-207.91l-18.29 215.49 -194.33 -7.58zm-60.17 -121.6l0 105.83c70.16,46.99 97.74,64.22 176.39,105.84 68.71,-59.72 -37.34,21.99 56.95,-48.89 39.47,-29.67 52.67,-35.86 84.16,-56.95 0,-152.25 35.68,-246.94 -176.39,-246.94 -82.57,0 -141.11,58.53 -141.11,141.11z"/>
   </g>
   <g>
    <path class="fil4" d="M10249.99 8322.76c193.78,28.06 118.85,-29.09 331.93,-131.23 158.75,-76.11 287.75,-65.25 284.09,-243.09 -143.2,-86.28 -367.61,64.25 -550.94,186.48 -129.6,86.42 -111.05,4.29 -65.08,187.84z"/>
    <path class="fil4" d="M11158.15 7877.89c-2.09,129.34 -14.71,128.05 134.22,146.11 118.65,14.38 162.38,7.63 247.92,-40.28 -3.11,-123.8 11.74,-135.28 -136.55,-156.16 -103.81,-14.61 -177.62,-0.1 -245.59,50.33z"/>
    <polygon class="fil4" points="7414.03,9324.28 7484.59,9324.28 7484.59,9183.16 7414.03,9183.16 "/>
    <path class="fil4" d="M13587.64 9465.39c24.06,-39.66 90.99,73.62 16.64,-35.39 -34.96,-51.25 35.63,-2.51 -51.91,-35.17l35.27 70.56z"/>
    <path class="fil4" d="M8578.2 10417.89c1.44,11.65 38.91,7.9 42.05,6.72 8.78,-3.28 61.28,81.65 15.3,-9.47l-18.38 -8.37c-27.32,-0.59 -47.99,-61.52 -38.97,11.12z"/>
    <polygon class="fil4" points="14575.42,10276.78 14610.7,10206.22 14575.42,10206.22 "/>
    <polygon class="fil4" points="14645.98,10982.33 14610.7,10982.33 14640.1,11023.49 "/>
    <polygon class="fil4" points="13587.64,9500.66 13587.64,9465.39 13552.37,9500.66 "/>
    <path class="fil4" d="M9460.14 8230.67l10.53 -10.52c-0.7,0.68 -14.04,7.01 -10.53,10.52z"/>
    <polygon class="fil4" points="7237.64,14298.44 7161.79,14317.84 "/>
    <polygon class="fil4" points="8049.03,9853.44 8013.75,9853.44 "/>
    <polygon class="fil4" points="12423.48,11546.77 12464.05,11477.98 "/>
   </g>
   <g>
    <path class="fil5" d="M8833.24 10356.07c515.94,246.25 457.61,258.04 1054.48,489.46 108.94,42.24 93.65,-2.84 123.65,87.29 85.14,-62.17 118.95,-121.58 150.79,-211.7 -149.03,21.36 -191.89,-47.66 -445.55,-126.88l-380.56 -154.32c-76.83,-43.24 -18.74,15.15 -53.31,-42.1l-211.91 -83.42c-128.24,-60.06 -112.33,-31.84 -129.48,-100.14 -3.61,-14.35 -12.41,-16.93 -18,-25.8l-90.11 167.61z"/>
    <path class="fil5" d="M11077.15 11204.56l1077.4 169.53 48.06 -53.17c-92.55,-80.5 -31.65,-0.69 -63.1,-126.75l-482.34 -79.27 -364.09 -62.62c-21,-35.68 111.4,12.24 -23.85,-16.02 -32.08,-6.71 -168.74,-9.6 -206.54,-11.32l14.46 179.62z"/>
    <path class="fil5" d="M12278.81 11408.6l776.59 3.69 -0.96 -145.71c-119.25,38.44 -424,-7.99 -585.88,-10.71 21.28,-127.05 24.9,-13.68 -150.92,-18.46l-28.75 -73.5c-24.15,-52.05 -6.88,-27.09 -44.62,-76.7l-59.1 39.44c159.23,-47.09 28.98,-20.82 79.82,32.07 -7.93,193.54 72.62,58.33 13.82,249.88z"/>
   </g>
   <g>
    <path class="fil6" d="M8226.03 14368.92c-20.9,-138.27 -337.79,-143.47 -459.22,-141.04 -157.3,-325.01 -50.43,-111.58 -232.15,-388.33 -157.23,25.52 -47.25,-28.69 -144.6,119.24 -38.07,57.84 -67.6,64.51 -67.95,125.23 -0.79,137.23 664.88,495.52 726.92,518.09 61.7,-85.92 112.39,-164.9 177,-233.19z"/>
    <path class="fil6" d="M7561.23 13746.93c192.28,192.12 -17.84,112.55 299.87,277.01 22.26,11.52 183.06,197.3 399.6,204.24 98.05,-34.85 14.55,24.86 35.45,-31.53 86.08,-43.78 60.2,41.92 65.53,-74.6l-559.29 -395.17c-66.56,-120.43 -61.89,7.11 14.71,-84.49l-70.67 -9.51 -134.53 20.35 -50.67 93.7z"/>
   </g>
   <g>
    <path class="fil7" d="M9364.65 9638.59l3.68 0 97.68 -106.78c389.43,-331.46 1476.5,-94.7 1966.69,40.76 493.2,136.29 1386.83,448.58 1482.6,849.93l40.65 10.66c24.02,-192.8 -103.81,-321.97 -246.56,-408.7 -68,-41.32 -122.78,-93.56 -186.69,-129.11 -634.18,-352.78 -2171.64,-738.08 -2885.13,-566.44 -125.94,30.29 -269.65,140.89 -272.92,309.68z"/>
    <path class="fil7" d="M10226.29 10654.13c187.47,-48.46 72.78,-22.25 91.04,27.49l12.35 -17.65 39.43 -73.48c101.22,14.9 138.75,27.32 210.61,83.53 144.05,112.65 36.2,69.24 105.87,178.02 27.94,43.63 254.7,175.52 315.32,237.44 -17.6,134.76 27.56,15.82 -43.76,124.33l-18.71 34.55c61.33,28.25 97.21,-102.74 29.52,82.28 103.95,-71.56 53.26,-26.22 109.19,-126.08l-14.46 -179.62c-558.53,-461.82 -188.17,-201.11 -377.94,-384.67 -312.99,-302.74 -428.59,-24.78 -458.46,13.86z"/>
   </g>
   <g>
    <path class="fil8" d="M9466.01 9531.81c-18.71,94.58 -33.41,101.13 36.31,151.42 184.56,-71.62 0.42,-2.19 125.34,-83.56 63.91,-41.63 41.82,-35.46 114.88,-50.78l521.85 0.48c25.37,-43.68 -10.43,-13.07 6.94,-11.83l661.77 100.09c318.1,42.28 -34.23,101.62 358.55,111.56 116.44,2.95 225.46,52.96 365.82,100.59 90.92,30.86 582.61,162.52 691.36,253.48 5.64,4.71 -30.74,-0.65 34.5,20 4.07,1.28 240.9,81.91 344.23,163.44 80.61,63.61 39.24,-27.85 83.59,104.24 -2.86,6.45 -8.57,10.37 -7.14,19.93 1.37,9.11 0.57,16.83 2.82,19.99 1.25,1.75 42.37,39.83 42.93,40.21 11.1,-10.85 65.15,-48.22 65.54,-48.57 -95.77,-401.35 -989.4,-713.64 -1482.6,-849.93 -490.19,-135.46 -1577.26,-372.22 -1966.69,-40.76z"/>
    <path class="fil8" d="M8593.85 10241.5l-156.76 -108.96c66.39,104.84 17.5,78.43 156.76,108.96z"/>
   </g>
   <g>
    <path class="fil9" d="M9282.74 10397.82c34.57,57.25 -23.52,-1.14 53.31,42.1l380.56 154.32c253.66,79.22 296.52,148.24 445.55,126.88l64.13 -66.99c29.87,-38.64 145.47,-316.6 458.46,-13.86 189.77,183.56 -180.59,-77.15 377.94,384.67 37.8,1.72 174.46,4.61 206.54,11.32 135.25,28.26 2.85,-19.66 23.85,16.02l364.09 62.62 483.91 -12.34c-65.49,-134.57 -256.7,-190.61 -392.97,-190.61 -14.37,-70.44 -2.97,-73.38 -3.63,-86.45 -0.4,-8.08 -2.95,-33.35 -3.24,-50.04 -0.21,-12.5 -0.21,-17.62 -1.91,-26.21l-257.13 -42.06c0,-0.02 0.89,-1.01 0.83,-1.05 -136.93,-84.67 -365.2,-79.59 -505.77,-84.49 -87.31,-129.7 -57.46,-83.42 -135.77,-103.13 -275.69,-69.4 -364.71,-140.58 -451.81,-161.57 -95.27,-22.96 -136.89,-15.94 -223.98,-45.07 -18.22,12.41 142.04,70.45 -103.3,16.05 -225.78,-50.06 48.84,114.77 -72.91,-51.33 19.24,-78.57 -29.63,15.91 33.89,-33.89 -48.57,51.78 99.74,117.49 -176.93,92.39 -209.68,-19.02 124.61,53.58 -47.83,-28.57 -41.85,-19.94 -218.93,-12.78 -279.8,64.2 -8.78,-8.81 -16.8,-21.21 -22.9,-29.47l-106.33 -156.55c-108.95,2.01 -141.29,12.87 -207.88,46.29 34.76,36.17 24.65,14.56 46,46.76 59.57,89.85 22.82,2.56 55.03,120.06z"/>
    <path class="fil9" d="M5190.89 11120.83l3.52 198.99c205.46,37.08 236.48,23.65 240.31,-161.1l-128.55 -107.52 -115.28 69.63z"/>
   </g>
   <g>
    <path class="fil10" d="M9742.54 9548.89c28.1,54.76 2.71,53.71 35.28,92.71 130.42,-33.95 525.15,36.74 564.44,19.5 -80.2,171.25 -77.16,-80.32 -127.46,226.56 253.09,-35.15 421.89,48.69 616.82,161.35 72.89,42.13 -27.76,16.08 133.72,14.37l398.48 73.02c8.16,3.32 17.17,7.53 25.24,10.93l50.01 21.8c241.05,103.69 199.84,36.78 396.58,51.59l112.74 26.52c270.08,49.74 -76.12,47.89 262.72,63.64 239.86,11.14 133.61,-7.68 270.28,118.63l167.2 -53.84c88.5,64.9 48.63,-21.08 92.39,87.6 118.71,-57 7.9,62.2 70.17,-72.33 -44.35,-132.09 -2.98,-40.63 -83.59,-104.24 -103.33,-81.53 -340.16,-162.16 -344.23,-163.44 -65.24,-20.65 -28.86,-15.29 -34.5,-20 -108.75,-90.96 -600.44,-222.62 -691.36,-253.48 -140.36,-47.63 -249.38,-97.64 -365.82,-100.59 -392.78,-9.94 -40.45,-69.28 -358.55,-111.56l-661.77 -100.09c-17.37,-1.24 18.43,-31.85 -6.94,11.83l-521.85 -0.48z"/>
    <path class="fil10" d="M13055.4 11412.29l-776.59 -3.69c18.21,100.62 18.14,108.84 30.02,219.13 6.97,64.77 32.56,121.14 58.8,212.77 297.16,88.89 203.4,104.66 338.87,306.17 75.96,92.71 72.39,129.48 68.81,284.81l14.85 -169.7c69.34,67.74 94.87,-113.43 74.74,150.02 81.5,-173.4 -30.53,-23.72 80.38,-105.81 119.21,-88.22 -11.36,84.24 65.56,-65.39l34.06 -78.92c2.22,-16.25 7.06,-21.54 13.58,-30.6l423.51 1761.58c81.73,106.11 70.55,272.47 70.55,441.23 -244.33,155.51 -657.74,139.73 -741.01,282.23 -115.04,-12.03 -86.13,-72.32 -243.16,-68.11 -144.97,3.9 64.08,-13.89 -72.98,10.55 -13.43,2.39 -25.04,7.86 -35.95,10.35 -11,2.51 -24.18,7.1 -35.79,11.93 -32.95,82.62 -8.84,72.3 35.1,131.35 70.58,-187.18 152.81,-62.03 259.86,-36.02 182.78,44.43 138.1,-26.01 286.49,-78.24 169.45,-59.64 411.87,-94.84 617.82,-193.66 0,-408.47 -28.44,-422.09 -97.18,-714.21 -54.55,-231.84 -64.45,-467.83 -120.67,-690.71 -49.94,-197.92 -136.64,-436.29 -163.69,-647.7 -13.56,-106.02 -2.38,-87.96 -31.65,-180.02 -97.91,-308.06 -22.6,-389.49 -151.25,-483.74l-70.56 246.94c0,-187.84 -31.81,-197.33 -35.28,-352.78 -185.37,0 -173,38.96 -211.66,-105.83l-141.12 0c-24.39,101.89 39.76,38.99 -56.2,87.45 -127.19,64.23 -120.09,-16.83 -120.18,-16.9 -106.95,60.09 -39.7,18.97 -70.56,0 94.88,-179.3 243.07,-107.7 776.22,-105.72 144.11,0.53 538.64,-12.49 678.13,-63.28 133.87,-48.75 34.14,-0.47 97.87,-54.68 -297.83,65.83 -535.76,101.16 -849.74,89.2z"/>
   </g>
   <g>
    <path class="fil11" d="M6285.14 11815.39l54.94 50.8c212.09,55.21 1010.13,22.24 1285.62,23.44 130.63,0.58 529.84,27.36 618.91,-41.12 193.23,-148.55 -75.94,-284.47 -313.11,-233.22 -166.93,18.09 -668.79,44.26 -828,-33.24 17.74,-117.39 5.49,-26.62 -6.97,-176.39 222.4,-51.81 766.99,43.57 629.58,-272.52 -58.14,-133.74 -3.53,54.66 -65.13,-115.53l-2010.84 0 70.56 352.78c342.63,0 1053.15,-97.46 905.44,155.64 -53.13,91.04 -211.31,56.02 -341,56.02 -8.86,104.01 -53.78,172.34 0,233.34z"/>
    <path class="fil11" d="M8925.69 10183.07l-2.34 5.39c5.59,8.87 14.39,11.45 18,25.8 17.15,68.3 1.24,40.08 129.48,100.14l211.91 83.42c-32.21,-117.5 4.54,-30.21 -55.03,-120.06 -21.35,-32.2 -11.24,-10.59 -46,-46.76 66.59,-33.42 98.93,-44.28 207.88,-46.29l106.33 156.55c6.1,8.26 14.12,20.66 22.9,29.47 60.87,-76.98 237.95,-84.14 279.8,-64.2 172.44,82.15 -161.85,9.55 47.83,28.57 276.67,25.1 128.36,-40.61 176.93,-92.39 -63.52,49.8 -14.65,-44.68 -33.89,33.89 121.75,166.1 -152.87,1.27 72.91,51.33 245.34,54.4 85.08,-3.64 103.3,-16.05 -283.56,-215.72 -360.15,-198.35 -550.32,-325.34 -194.93,-130.17 -211.95,-173.33 -247.05,-347.95l-3.68 0c-63.87,106.6 -307.2,445.37 -438.96,544.48z"/>
   </g>
   <g>
    <path class="fil12" d="M8316.39 13989.71c67.98,53.62 54.75,32.36 123.38,111.89l-50.23 152.82 47.55 44.02c86.2,-22.86 47.69,15.64 70.55,-70.56 32.63,43.14 22.88,-39.65 35.28,105.84l564.44 70.55c-432.89,0 -231.58,1.15 -423.33,70.56 317.3,201.32 143.64,176.39 423.33,176.39l0 -105.84 282.23 0 0 141.11c687.2,0 298.92,34.94 564.44,105.84l0 -105.84 282.22 0 0 141.12 282.23 0 70.55 141.11c25.86,-64.06 70.19,-99.65 243,-71.14 265.33,43.76 -41.04,74.98 234.69,57.59 191.25,-12.06 450.98,-57.01 615.92,-57.01 14.52,-41.04 0.46,-9.22 0,-35.28 -0.45,-26.05 -14.52,5.77 0,-35.27 79.46,16.82 300.85,28.72 389.07,-34.06l69.54 -107.06c93.38,24.77 29.01,-2.81 105.84,35.28l35.1 -35.28c-143.02,-171.22 -227.77,63.04 -347.64,52.6 -5.59,-0.48 -15.91,-3.33 -22.29,-3.87 -7.33,-0.62 -17.58,-2.41 -25.83,-2.88 -456.44,-25.74 -274.94,-18.74 -344.9,-142.9l-99.24 15.14c-334.48,144.39 -190.83,192.6 -838.63,-250.12 -333.29,-227.78 -235.02,-125.14 -264.26,-88.51 -90.91,113.88 241.97,123.72 347.85,377.65 -292.25,-84.08 -954.45,-654.01 -1076.11,-662.84 -67.84,-32.48 -111.63,50.25 -84.13,-140.76 -7.84,11.28 -14.97,23.99 -22.51,34.49l-105.96 132.78c1.59,-181.09 38.52,-161.84 -8.95,-114.61 -185.64,-7.16 -214.09,30.64 -336.95,82.94 -176.91,75.31 -235.87,-47.13 -264.5,-57.72 -4.44,-1.64 -29.91,-2.64 -35.39,-3.32 -225.9,-28.02 -104.15,-3.28 -234.08,47.07 -152.35,59.02 -9.01,33.35 -202.28,28.08z"/>
    <path class="fil12" d="M7103.5 11582.05c159.21,77.5 661.07,51.33 828,33.24 7.96,-30.27 48.9,-145.22 50.71,-148.52 46.06,-84.01 80.33,-68.21 128.19,-89.1l84.36 -26.11c0.91,0.14 7.29,3.44 8.24,3.49 0.93,0.05 7.72,1.07 8.71,0.94 11.8,-1.57 12.08,-1.84 33.01,-15.58 0.29,-0.19 9.73,0.85 36.6,-29.84l35.96 -73.2c127.72,-258.92 120.36,-206.18 203.22,-242.18 61.28,159.97 40.1,115.52 24.56,264.81 102.05,-50.22 58.42,-27.99 174.25,0 26.94,85.08 26.95,-39.95 -12.7,35.99 -72.15,138.13 -54.16,-70.82 -22.58,34.56 224.54,90.14 36.79,17.26 176.39,112.67l191.56 -93.73c258.75,-71.99 129.28,33.39 150.01,182.82 13.4,96.6 63.9,116 73.55,196.11 12.63,104.77 -37.58,74.17 -5.82,182.77 6.85,-5.19 15.18,-24.52 17.99,-18.47l183.11 -124.18c4.4,-2.14 15.51,-5.72 22.46,-10.1 -2.1,-181.16 -16.84,-62.75 32.86,-141.11 -31.25,-20.5 -172.59,-34.55 -184.13,-90.12 -42.57,-204.96 23.26,138.1 14.98,-80.88 -0.35,-9.12 8.24,-39.44 -50.55,-123.82l134.57 -48.2c4.21,-2.4 11.98,-10.82 19.13,-14.31 5.6,6.83 13.21,9.3 15.69,21.36 2.48,12.05 12.38,16.81 15.85,21.23 3.47,4.4 11.64,15.75 15.98,21.05 152.94,186.85 181.77,72.43 300.7,112.75 27.12,-250.57 -23.59,-190.49 40.64,-312.14 64.73,74.7 59.71,52.2 69.93,172.19l122.84 -76.14c-59.21,-93.35 -59.01,-171.24 -30.4,-287.48 -30,-90.13 -14.71,-45.05 -123.65,-87.29 -596.87,-231.42 -538.54,-243.21 -1054.48,-489.46l-113.93 -46.62 191.82 128.38c6.95,3.7 15.84,8.74 22.67,12.56 6.75,3.78 15.18,9.55 21.84,13.41l88.88 52.21c38.81,21.07 27.78,11.36 69.97,35.87 68.12,39.56 23.37,7.58 63.43,42.39 -106.65,38.61 -16.68,65.74 -177.73,69.94 -128.19,3.34 -85.99,-10.3 -175.05,-69.94 55.48,238.15 77.25,122.9 282.22,105.84l0 70.55c-52.34,0 -125.98,4.23 -175.94,-2.86l-148.22 -41.75c-5.95,-1 -16.01,-2.02 -22.12,-2.66l-218.16 -23.28c-20.05,183.24 15.01,35.64 -56.23,120.16l-571.95 592.21c-35.93,69.06 -34.94,83.5 -42.1,169.57l-328.87 -7.78c-148.93,8.23 -289.89,7.78 -440.27,7.78z"/>
   </g>
   <g>
    <path class="fil13" d="M7523.14 13608.98c15.39,-5.41 74.49,-35.58 108.03,-34.67 149.47,4.04 89.72,32.62 115.26,58.57l70.67 9.51c75.84,-59.24 39.32,-45.31 126.1,-103.68 137.29,33.41 342.01,186.62 423.92,254.16l-50.73 196.84c193.27,5.27 49.93,30.94 202.28,-28.08 129.93,-50.35 8.18,-75.09 234.08,-47.07 5.48,0.68 30.95,1.68 35.39,3.32 28.63,10.59 87.59,133.03 264.5,57.72 122.86,-52.3 151.31,-90.1 336.95,-82.94 47.47,-47.23 10.54,-66.48 8.95,114.61l105.96 -132.78c7.54,-10.5 14.67,-23.21 22.51,-34.49 -27.5,191.01 16.29,108.28 84.13,140.76l11.99 -94.63c341.94,140.12 317.96,287.93 462.82,189.53 -6.21,-133.58 -267.67,-255.63 -385.28,-334.73 -356.18,-239.55 -548.93,-308.28 -345.55,-608.67 43.36,-64.06 88.18,-137.63 146.24,-174.55 -89.49,-38.18 -157.07,-67.66 -295.96,-78.18 82.02,195.79 112.08,103.87 24.87,313.42 -5.06,-10.76 -5.92,-26.15 -9.62,-34.35l-41.53 -79.34c-48.22,-43.54 -5.65,-38.59 -107.03,-15.54l0 211.66 -105.84 -211.66 -105.83 211.66 -72.86 -159.37c-90.98,75.86 19.16,7.33 -90.23,2.99 -0.92,-0.03 -7.9,-1.33 -8.81,-1.39l-44.04 -0.55c-0.87,0 -7.73,0.81 -8.6,0.75 -112.7,-7.41 45.89,-74.44 -55.38,-0.55 -3.84,2.8 -14.64,69.08 -24.67,31.24 -1.7,-6.4 -8.21,14.29 -12.91,21.05 -11.91,-143.13 -36.96,-128.54 -113.14,-127.18 -27.53,0.49 -64.44,11.54 -91.15,4.59 -146.51,-38.11 53.48,-89.95 -230.8,-89.08l-331.06 -0.16c-59.37,-34.28 -72.69,-82.19 -80.52,-176.22l-37.58 52.28c-1.59,1.33 -9.17,6.38 -10.73,7.22 -89.02,48.25 32.89,-2.67 -44.65,-7.77 -0.87,-0.05 -7.73,0.76 -8.6,0.75l-140.89 -0.54c-0.94,0.06 -8.04,1.88 -8.98,1.94l-26.3 0c-0.94,-0.06 -8.04,-1.88 -8.98,-1.94l-44.1 3.31c-0.89,0.03 -7.76,0.03 -8.65,0l-88.14 -2.77c-0.87,0.01 -7.73,-0.8 -8.6,-0.75l-16.84 4.01c-86.35,9.87 64.13,71.47 -38.54,-3.46 -3.49,-2.54 -22.47,-18.16 -24.67,-31.23 -1.7,-10.07 -8.22,-14.29 -12.91,-21.05 -13.64,163.83 37.83,61.69 -70.56,141.11 -82.67,-172.29 84.51,-184.41 -106.01,-211.67l-219.08 307.81c-4.97,5.15 -12.4,12.4 -17.28,17.62 -65.54,70.05 -133.45,155.92 -138.18,225.67l307.12 34.08c259.05,0.77 118.8,16.73 252.19,57.54l261.81 -55.23c64.47,-19.52 -7.64,-16.25 117.87,-25.68 -6.58,9 -22.56,3.86 -27.68,18.74 -5.09,14.77 -20.54,13.48 -27.38,18.73 -7.27,5.57 -43.83,30.43 -52.4,38.53 -178.04,168.18 27.88,139.47 -48.4,314.51l124.03 -54.28z"/>
    <path class="fil13" d="M11442.29 14604.58l99.24 -15.14c69.96,124.16 -111.54,117.16 344.9,142.9 8.25,0.47 18.5,2.26 25.83,2.88 6.38,0.54 16.7,3.39 22.29,3.87 119.87,10.44 204.62,-223.82 347.64,-52.6l0.17 47.92 317.5 -7.25c-7.09,-5.38 -16.65,-24.96 -20.9,-16.62 -4.2,8.25 -17.96,-11.24 -23.73,-11.51 -100.97,-4.88 -17.6,-9.64 -96.48,13.16 -43.94,-59.05 -68.05,-48.73 -35.1,-131.35 11.61,-4.83 24.79,-9.42 35.79,-11.93 10.91,-2.49 22.52,-7.96 35.95,-10.35 137.06,-24.44 -71.99,-6.65 72.98,-10.55 157.03,-4.21 128.12,56.08 243.16,68.11 83.27,-142.5 496.68,-126.72 741.01,-282.23 0,-168.76 11.18,-335.12 -70.55,-441.23 -74.85,90.07 6.22,368.19 -207.25,352.22 -276.49,-20.69 -103.04,-122.83 -498.49,-122.83l0 -35.28c397.82,0 281.47,17.25 311.49,-61.6l-734.82 0c-91.11,-16.31 -3.13,-149.08 -339.27,-129.72 -89.42,5.15 46.43,20.77 -83.52,-20.52 -96.39,49.07 -440.96,599.05 -487.84,729.65z"/>
    <path class="fil13" d="M12145.64 13522.15c-72.35,81.51 -170.8,236.72 -215.51,352.78 129.95,41.29 -5.9,25.67 83.52,20.52 336.14,-19.36 248.16,113.41 339.27,129.72l734.82 0c3.94,-52.1 -1.12,-94.12 94.38,-165.15 121.14,-90.1 18.87,-19.96 70.66,-24.79 42.37,-3.95 48.98,25.21 58.66,-7.59l37.79 -352.4c-96.46,-182.54 26.03,58.55 -97.99,-45.47 -110.14,-92.39 -4.52,8.52 -63.69,-83.83 74.44,-200.85 68.5,-87.36 82.59,-362.81 -6,7.73 -12.27,19.59 -15.79,24.74 -3.35,4.89 -11.42,17.72 -15.42,23.31 -3.66,5.12 -10.69,15.96 -14.57,21 -3.38,4.4 -10.1,13.96 -13.42,17.8l-79.84 45.3c-199.67,99.46 -333.33,54.27 -643.09,54.27 19.01,141.59 28.26,72.08 41.3,211.67 -86.14,-48.68 -143.55,-84.49 -182.41,-182.41 125.3,-41.27 8.38,0.37 94.83,-47.08l87.58 -52.73c-69.76,-136.25 -246.78,-176.88 -352.78,-70.56 12.89,153.84 9.05,35.17 115.27,175.91l-43.81 285.15 -102.35 32.65z"/>
   </g>
   <g>
    <path class="fil14" d="M10249.99 8322.76c-45.97,-183.55 -64.52,-101.42 65.08,-187.84 183.33,-122.23 407.74,-272.76 550.94,-186.48 3.66,177.84 -125.34,166.98 -284.09,243.09 -213.08,102.14 -138.15,159.29 -331.93,131.23zm1042.38 -298.76c-148.93,-18.06 -136.31,-16.77 -134.22,-146.11 67.97,-50.43 141.78,-64.94 245.59,-50.33 148.29,20.88 133.44,32.36 136.55,156.16 -85.54,47.91 -129.27,54.66 -247.92,40.28zm-1628.75 454.95c938.74,36.75 1897.38,254.12 2764.97,559.75 275.66,97.1 581.21,251.46 812.55,327.13 -106.07,-1358.97 -1579.53,-2135.48 -2744.94,-1615.51 -304.16,135.7 -753.5,481.09 -832.58,728.63z"/>
    <path class="fil14" d="M9502.32 9683.23c119.05,254.45 434.48,340.34 660.09,448.45 269.2,129 512.87,204.35 814.35,280.15 340.92,85.72 1680.84,372.57 1873,59.24 -0.56,-0.38 -41.68,-38.46 -42.93,-40.21 -2.25,-3.16 -1.45,-10.88 -2.82,-19.99 -1.43,-9.56 4.28,-13.48 7.14,-19.93 -62.27,134.53 48.54,15.33 -70.17,72.33 -43.76,-108.68 -3.89,-22.7 -92.39,-87.6l-167.2 53.84c-136.67,-126.31 -30.42,-107.49 -270.28,-118.63 -338.84,-15.75 7.36,-13.9 -262.72,-63.64l-112.74 -26.52c-196.74,-14.81 -155.53,52.1 -396.58,-51.59l-50.01 -21.8c-8.07,-3.4 -17.08,-7.61 -25.24,-10.93l-398.48 -73.02c-161.48,1.71 -60.83,27.76 -133.72,-14.37 -194.93,-112.66 -363.73,-196.5 -616.82,-161.35 50.3,-306.88 47.26,-55.31 127.46,-226.56 -39.29,17.24 -434.02,-53.45 -564.44,-19.5 -32.57,-39 -7.18,-37.95 -35.28,-92.71 -73.06,15.32 -50.97,9.15 -114.88,50.78 -124.92,81.37 59.22,11.94 -125.34,83.56z"/>
    <path class="fil14" d="M6779.03 14016.22c139.73,56.4 -36.62,128.93 141.11,176.39 4.13,-185.28 36.19,-134.71 70.56,-282.23l141.11 0c-3.63,162.94 -43.43,129.69 -30.07,266.34 6.67,68.2 32.62,74.78 86.68,101.49l49.22 20.23c47.02,26.79 37.68,22.67 105.83,35.28l49.82 -47.52c-73.36,-53.39 -257.09,-69.59 -95.84,-313.53 82.18,-124.33 170.12,-221.96 225.69,-363.69l-124.03 54.28c76.28,-175.04 -129.64,-146.33 48.4,-314.51 8.57,-8.1 45.13,-32.96 52.4,-38.53 6.84,-5.25 22.29,-3.96 27.38,-18.73 5.12,-14.88 21.1,-9.74 27.68,-18.74 -125.51,9.43 -53.4,6.16 -117.87,25.68l-261.81 55.23c-133.39,-40.81 6.86,-56.77 -252.19,-57.54l-307.12 -34.08c4.73,-69.75 72.64,-155.62 138.18,-225.67 4.88,-5.22 12.31,-12.47 17.28,-17.62l219.08 -307.81c86.28,-45.75 160.66,-195.28 241.97,-291.41 196.61,-232.43 322.48,-286.28 322.48,-506.35 -307.91,-6.2 -971.7,23.48 -1214.89,-46.99l-54.94 -50.8 0 119.44 1199.45 0c-17.93,163.82 -80.84,133.71 -285.59,384.69l-137.94 179.56c-4.56,5.75 -11.14,13.83 -15.76,19.52l-643.24 803.36c-116.45,137.24 -108.69,157.85 -148.5,284.93l-30.26 97.83c-8.79,47.55 -8.71,50.12 -8.71,99.83 207.23,138.77 153.03,91.5 322.37,62.8 45.09,-7.64 290.4,-27.52 418.46,-27.52l-176.39 70.55 0 105.84z"/>
    <path class="fil14" d="M13009.06 8371.78l62.46 54.28c152.73,18.41 594.05,5.23 727,-50.94l12.68 -218.12c-231.03,-127.22 -440.62,18.77 -601.51,-102.72 -35.77,-242.75 146.66,-180.45 377.78,-183.59l1199.82 0.19c243.76,4.4 405.12,-61.07 362.39,191.32 -212.34,78.36 -564.66,-0.43 -804.94,62.63 174.82,0 692.89,47.94 806.61,-27.19 115.51,-76.33 39.37,-219.47 -52.65,-248.46l-1760.2 -8.77c-192.88,16.33 -174.19,88.2 -174.19,284.42l261.95 26.2c113.5,-2.95 437.62,-25.99 326.87,166.57 -64.3,111.8 -393.1,43.72 -500.99,43.18 -201.22,-1.01 -56.48,80.71 -243.08,11z"/>
   </g>
   <path class="fil15" d="M7931.5 11615.29c237.17,-51.25 506.34,84.67 313.11,233.22 -89.07,68.48 -488.28,41.7 -618.91,41.12 -275.49,-1.2 -1073.53,31.77 -1285.62,-23.44 243.19,70.47 906.98,40.79 1214.89,46.99 0,220.07 -125.87,273.92 -322.48,506.35 -81.31,96.13 -155.69,245.66 -241.97,291.41 190.52,27.26 23.34,39.38 106.01,211.67 108.39,-79.42 56.92,22.72 70.56,-141.11 4.69,6.76 11.21,10.98 12.91,21.05 2.2,13.07 21.18,28.69 24.67,31.23 102.67,74.93 -47.81,13.33 38.54,3.46l16.84 -4.01c0.87,-0.05 7.73,0.76 8.6,0.75l88.14 2.77c0.89,0.03 7.76,0.03 8.65,0l44.1 -3.31c0.94,0.06 8.04,1.88 8.98,1.94l26.3 0c0.94,-0.06 8.04,-1.88 8.98,-1.94l140.89 0.54c0.87,0.01 7.73,-0.8 8.6,-0.75 77.54,5.1 -44.37,56.02 44.65,7.77 1.56,-0.84 9.14,-5.89 10.73,-7.22l37.58 -52.28c7.83,94.03 21.15,141.94 80.52,176.22l331.06 0.16c284.28,-0.87 84.29,50.97 230.8,89.08 26.71,6.95 63.62,-4.1 91.15,-4.59 76.18,-1.36 101.23,-15.95 113.14,127.18 4.7,-6.76 11.21,-27.45 12.91,-21.05 10.03,37.84 20.83,-28.44 24.67,-31.24 101.27,-73.89 -57.32,-6.86 55.38,0.55 0.87,0.06 7.73,-0.75 8.6,-0.75l44.04 0.55c0.91,0.06 7.89,1.36 8.81,1.39 109.39,4.34 -0.75,72.87 90.23,-2.99l72.86 159.37 105.83 -211.66 105.84 211.66 0 -211.66c101.38,-23.05 58.81,-28 107.03,15.54l41.53 79.34c3.7,8.2 4.56,23.59 9.62,34.35 87.21,-209.55 57.15,-117.63 -24.87,-313.42 138.89,10.52 206.47,40 295.96,78.18 68.41,-163.81 476.69,-782.51 585.14,-882.12 202.12,-101.27 865.18,426.64 1133.06,603.98l756.99 514.1c134.37,92.27 171.13,121.94 169.09,328.48l102.35 -32.65 43.81 -285.15c-106.22,-140.74 -102.38,-22.07 -115.27,-175.91 106,-106.32 283.02,-65.69 352.78,70.56l-87.58 52.73c-86.45,47.45 30.47,5.81 -94.83,47.08 38.86,97.92 96.27,133.73 182.41,182.41 -13.04,-139.59 -22.29,-70.08 -41.3,-211.67 309.76,0 443.42,45.19 643.09,-54.27l79.84 -45.3c3.32,-3.84 10.04,-13.4 13.42,-17.8 3.88,-5.04 10.91,-15.88 14.57,-21 4,-5.59 12.07,-18.42 15.42,-23.31 3.52,-5.15 9.79,-17.01 15.79,-24.74 -14.09,275.45 -8.15,161.96 -82.59,362.81 59.17,92.35 -46.45,-8.56 63.69,83.83 124.02,104.02 1.53,-137.07 97.99,45.47l-37.79 352.4c-9.68,32.8 -16.29,3.64 -58.66,7.59 -51.79,4.83 50.48,-65.31 -70.66,24.79 -95.5,71.03 -90.44,113.05 -94.38,165.15 -30.02,78.85 86.33,61.6 -311.49,61.6l0 35.28c395.45,0 222,102.14 498.49,122.83 213.47,15.97 132.4,-262.15 207.25,-352.22l-423.51 -1761.58c-6.52,9.06 -11.36,14.35 -13.58,30.6l-34.06 78.92c-76.92,149.63 53.65,-22.83 -65.56,65.39 -110.91,82.09 1.12,-67.59 -80.38,105.81 20.13,-263.45 -5.4,-82.28 -74.74,-150.02l-14.85 169.7c3.58,-155.33 7.15,-192.1 -68.81,-284.81 97.68,928.96 -957.36,607.43 -728.56,-0.35 -8.43,-9.89 -17.12,-22.4 -23.15,-31.36l-75.2 -130.13c-276.6,0 -716.64,19.86 -983.77,-108.66 -70.02,-33.69 -18.64,-45.72 -159.71,-54.87l-592.75 -150.66c-151.87,-36.92 -246.94,-26.1 -268.94,-203.48 142.56,-74.36 234.72,14.53 317.5,114.33 51.66,-143.75 31.6,-30.44 126.74,-175.82l-276.89 -185.37 -122.84 76.14c-10.22,-119.99 -5.2,-97.49 -69.93,-172.19 -64.23,121.65 -13.52,61.57 -40.64,312.14 -118.93,-40.32 -147.76,74.1 -300.7,-112.75 -4.34,-5.3 -12.51,-16.65 -15.98,-21.05 -3.47,-4.42 -13.37,-9.18 -15.85,-21.23 -2.48,-12.06 -10.09,-14.53 -15.69,-21.36 -7.15,3.49 -14.92,11.91 -19.13,14.31l-134.57 48.2c58.79,84.38 50.2,114.7 50.55,123.82 8.28,218.98 -57.55,-124.08 -14.98,80.88 11.54,55.57 152.88,69.62 184.13,90.12 -49.7,78.36 -34.96,-40.05 -32.86,141.11 -6.95,4.38 -18.06,7.96 -22.46,10.1l-183.11 124.18c-2.81,-6.05 -11.14,13.28 -17.99,18.47 -128.94,28.01 -25.6,40.58 -107.03,-9.24 -47.97,244.19 -56.64,322.54 -265.39,409.8 -110.27,-183.11 -117.9,-180.64 -49.77,-420.16 62.13,-218.42 10.08,-331.02 203.9,-412.09l0.55 -130.01 -191.56 93.73c-139.6,-95.41 48.15,-22.53 -176.39,-112.67 -31.58,-105.38 -49.57,103.57 22.58,-34.56 39.65,-75.94 39.64,49.09 12.7,-35.99 -115.83,-27.99 -72.2,-50.22 -174.25,0 15.54,-149.29 36.72,-104.84 -24.56,-264.81 -82.86,36 -75.5,-16.74 -203.22,242.18l-35.96 73.2c-26.87,30.69 -36.31,29.65 -36.6,29.84 -20.93,13.74 -21.21,14.01 -33.01,15.58 -0.99,0.13 -7.78,-0.89 -8.71,-0.94 -0.95,-0.05 -7.33,-3.35 -8.24,-3.49l-84.36 26.11c-47.86,20.89 -82.13,5.09 -128.19,89.1 -1.81,3.3 -42.75,118.25 -50.71,148.52z"/>
   <path class="fil16" d="M7979.6 9047.89c-72.18,100.72 -77.6,151.91 -37.22,277.87 127.09,396.44 715.03,852.44 983.31,857.31 131.76,-99.11 375.09,-437.88 438.96,-544.48 3.27,-168.79 146.98,-279.39 272.92,-309.68 713.49,-171.64 2250.95,213.66 2885.13,566.44 63.91,35.55 118.69,87.79 186.69,129.11 142.75,86.73 270.58,215.9 246.56,408.7 -92.7,135.03 34.06,687.4 106.46,808.82 392.36,45.79 811.55,-26.02 1146.44,-202.32 153.94,-81.04 276.05,-204.38 233.53,-429.73l-19.87 71.28c-173.62,-718.43 -1900.96,-1385.59 -2790.21,-1622.03 -806.16,-214.35 -2476.1,-517.77 -3322.24,-176.59 -96.48,38.9 -294.25,172.82 -330.46,165.3z"/>
   <path class="fil17" d="M10138.1 14157.33c74.9,-100.46 -6.41,-29.22 101.39,-76.89 60.34,104.35 78.15,48.03 -16.39,168.11l-85 -91.22zm995.46 231.82c206.2,138.58 163.32,94.15 199.23,195.12 -227.61,73.37 -371.32,-106.02 -554.05,-228.29l-1013.96 -680.13c-333.78,-225.32 -405.89,-207.84 -377.63,-438.18 147.12,47.7 1411.92,926.68 1746.41,1151.48zm-1468.45 -1236.09c25.88,-127.65 40.88,-193.23 168.39,-190.1 -32.5,126.74 -32.8,143.38 -168.39,190.1zm216.56 -308.11c7.3,-124.8 38.07,-129.08 96.07,-215.12 96.99,-143.89 29.99,-121.33 152.68,-169.52 31.28,69.64 52.01,-1.83 2.58,111.29 -42.7,97.71 -156.37,241.93 -251.33,273.35zm662.38 -265.28c-134.06,-89.84 -402.87,-230.54 -457.67,-362.62 100.12,-216.15 470.05,110.56 569.21,179.17 165.13,114.27 376.6,244.9 526.92,353.05 518.13,372.8 1000.86,539.67 826.89,790.45 -81.51,-8.62 -1221.76,-796.8 -1465.35,-960.05zm-1042.69 378.04c-58.06,36.92 -102.88,110.49 -146.24,174.55 -203.38,300.39 -10.63,369.12 345.55,608.67 117.61,79.1 379.07,201.15 385.28,334.73 -144.86,98.4 -120.88,-49.41 -462.82,-189.53l-11.99 94.63c121.66,8.83 783.86,578.76 1076.11,662.84 -105.88,-253.93 -438.76,-263.77 -347.85,-377.65 29.24,-36.63 -69.03,-139.27 264.26,88.51 647.8,442.72 504.15,394.51 838.63,250.12 46.88,-130.6 391.45,-680.58 487.84,-729.65 44.71,-116.06 143.16,-271.27 215.51,-352.78 2.04,-206.54 -34.72,-236.21 -169.09,-328.48l-756.99 -514.1c-267.88,-177.34 -930.94,-705.25 -1133.06,-603.98 -108.45,99.61 -516.73,718.31 -585.14,882.12z"/>
   <path class="fil18" d="M9663.62 8478.95c79.08,-247.54 528.42,-592.93 832.58,-728.63 1165.41,-519.97 2638.87,256.54 2744.94,1615.51 -231.34,-75.67 -536.89,-230.03 -812.55,-327.13 -867.59,-305.63 -1826.23,-523 -2764.97,-559.75zm-1896.81 527.83c-4.61,207.06 -67.58,247.91 29.43,464.24 49.48,110.35 153.15,251.03 217.51,347.14l35.28 35.28c141.01,94.43 217.73,197.92 388.06,279.1l156.76 108.96c52.24,37.52 68.98,40.54 125.46,67.95l113.93 46.62 90.11 -167.61 2.34 -5.39c-268.28,-4.87 -856.22,-460.87 -983.31,-857.31 -40.38,-125.96 -34.96,-177.15 37.22,-277.87 378.13,-755.67 2906.62,-302.36 3650.01,-91.37 770.98,218.83 2602.6,812.77 2812.77,1653.41 42.52,225.35 -79.59,348.69 -233.53,429.73 -334.89,176.3 -754.08,248.11 -1146.44,202.32l-7.97 24.6 0.96 145.71c313.98,11.96 551.91,-23.37 849.74,-89.2 182.37,10.95 483.49,-167.04 581.63,-288.3 87.04,-107.53 118.75,-159.54 126.65,-334.85 11.39,-253.03 -34.41,-221.06 -73.28,-387.89 -95.36,-69.86 -65.1,-93.82 -176.39,-184.09l-57.17 -75.66 -74.3 -57.75c-94.07,-111.09 -188.66,-178.48 -316,-258.08 -85.09,-53.19 -89.84,-59.34 -168.75,-113.47 -100.55,-68.98 -80.48,-38.62 -159.89,-122.34l-35.27 0 -70.56 -35.27c-51.26,-28.8 -37.35,-17.12 -105.83,-35.28 0,-210.66 -50.76,-536.76 -141.11,-643.76l-163.35 -360.29 -62.46 -54.28c-127.23,-310.41 -824.39,-826.73 -1114.75,-795.34 -118.62,-83.89 0.24,-18.87 -140.86,-55.7 -104.89,-27.39 -7.84,25.5 -107.64,-30.91 -510.28,-43.26 -789.68,-63.83 -1315.9,199.5 -384.31,192.32 -609.98,417.73 -834.49,753 -463.62,0 -1061.58,45.77 -1423.77,269.57 -176.27,108.92 -189.65,210.48 -304.84,294.88z"/>
   <path class="fil19" d="M9368.33 9638.59c35.1,174.62 52.12,217.78 247.05,347.95 190.17,126.99 266.76,109.62 550.32,325.34 87.09,29.13 128.71,22.11 223.98,45.07 87.1,20.99 176.12,92.17 451.81,161.57 78.31,19.71 48.46,-26.57 135.77,103.13 140.57,4.9 368.84,-0.18 505.77,84.49 0.06,0.04 -0.83,1.03 -0.83,1.05l257.13 42.06c1.7,8.59 1.7,13.71 1.91,26.21 0.29,16.69 2.84,41.96 3.24,50.04 0.66,13.07 -10.74,16.01 3.63,86.45 136.27,0 327.48,56.04 392.97,190.61l-483.91 12.34 482.34 79.27 45.66 -67.52 59.1 -39.44c37.74,49.61 20.47,24.65 44.62,76.7l28.75 73.5c175.82,4.78 172.2,-108.59 150.92,18.46 161.88,2.72 466.63,49.15 585.88,10.71l7.97 -24.6c-72.4,-121.42 -199.16,-673.79 -106.46,-808.82l-40.65 -10.66c-0.39,0.35 -54.44,37.72 -65.54,48.57 -192.16,313.33 -1532.08,26.48 -1873,-59.24 -301.48,-75.8 -545.15,-151.15 -814.35,-280.15 -225.61,-108.11 -541.04,-194 -660.09,-448.45 -69.72,-50.29 -55.02,-56.84 -36.31,-151.42l-97.68 106.78z"/>
   <path class="fil20" d="M10967.96 11330.64c-33.93,126.63 -110.43,209.07 -202.54,281.18 -197.66,9.07 -302.51,-118.24 -446.76,-206.15 -95.14,145.38 -75.08,32.07 -126.74,175.82 -82.78,-99.8 -174.94,-188.69 -317.5,-114.33 22,177.38 117.07,166.56 268.94,203.48l592.75 150.66c141.07,9.15 89.69,21.18 159.71,54.87 267.13,128.52 707.17,108.66 983.77,108.66l75.2 130.13c6.03,8.96 14.72,21.47 23.15,31.36 46.39,-210.39 123.79,-211.59 260.66,-324.19l-84.05 -448.04 -1077.4 -169.53c-55.93,99.86 -5.24,54.52 -109.19,126.08z"/>
   <path class="fil21" d="M13071.52 8426.06l163.35 360.29c37.83,-132.14 -130.75,-97.07 388.05,-97.07 36.65,90.8 -23.76,41.17 72.29,60.46 155.39,31.2 72.63,-77.49 324.42,-32.31l464.52 16.45c140.35,-148.13 165.68,-7.42 91.27,-326.83l-211.67 33.12c-126.31,-33.38 -89.28,-11.46 -176.38,-74.2 -53.66,-143.75 -27.35,-219.97 105.83,-265.42l51.54 24.28c240.28,-63.06 592.6,15.73 804.94,-62.63 42.73,-252.39 -118.63,-186.92 -362.39,-191.32l-1199.82 -0.19c-231.12,3.14 -413.55,-59.16 -377.78,183.59 160.89,121.49 370.48,-24.5 601.51,102.72l-12.68 218.12c-132.95,56.17 -574.27,69.35 -727,50.94z"/>
   <path class="fil22" d="M7979.6 9047.89c36.21,7.52 233.98,-126.4 330.46,-165.3 846.14,-341.18 2516.08,-37.76 3322.24,176.59 889.25,236.44 2616.59,903.6 2790.21,1622.03l19.87 -71.28c-210.17,-840.64 -2041.79,-1434.58 -2812.77,-1653.41 -743.39,-210.99 -3271.88,-664.3 -3650.01,91.37z"/>
   <path class="fil23" d="M10086.38 12217.05c54.8,132.08 323.61,272.78 457.67,362.62 243.59,163.25 1383.84,951.43 1465.35,960.05 173.97,-250.78 -308.76,-417.65 -826.89,-790.45 -150.32,-108.15 -361.79,-238.78 -526.92,-353.05 -99.16,-68.61 -469.09,-395.32 -569.21,-179.17z"/>
   <path class="fil24" d="M10317.33 10681.62c-84.58,107.85 -211.46,276.59 -249.41,406.54 69.25,92.26 510.29,410.27 662.22,436.28 77.59,-65.54 154.36,-171.85 208.3,-276.08l18.71 -34.55 -37.54 -91.08c-86.66,-131.46 -149.65,-64.85 -249.16,-215.47 -111.78,-169.18 -95.17,-212.03 -340.77,-243.29l-12.35 17.65z"/>
   <path class="fil25" d="M11332.79 14584.27c-35.91,-100.97 6.97,-56.54 -199.23,-195.12 -334.49,-224.8 -1599.29,-1103.78 -1746.41,-1151.48 -28.26,230.34 43.85,212.86 377.63,438.18l1013.96 680.13c182.73,122.27 326.44,301.66 554.05,228.29z"/>
   <path class="fil26" d="M12044.75 12276.6l555.83 -48.35c146.15,360.37 -444.69,680.16 -555.83,48.35zm4.93 -52.1c36.78,-172.21 83.34,-285.87 268.7,-285.06 157.55,0.69 247.39,115.22 278.16,230.77l-223.24 20.54 -79.85 -208.79 -21.5 211.3 -222.27 31.24zm89.83 -1030.33c31.45,126.06 -29.45,46.25 63.1,126.75l-48.06 53.17 84.05 448.04c-136.87,112.6 -214.27,113.8 -260.66,324.19 -228.8,607.78 826.24,929.31 728.56,0.35 -135.47,-201.51 -41.71,-217.28 -338.87,-306.17 -26.24,-91.63 -51.83,-148 -58.8,-212.77 -11.88,-110.29 -11.81,-118.51 -30.02,-219.13 58.8,-191.55 -21.75,-56.34 -13.82,-249.88 -50.84,-52.89 79.41,-79.16 -79.82,-32.07l-45.66 67.52z"/>
   <path class="fil27" d="M12509.93 15934.44c-100.39,36.3 -63.36,7.78 -100.48,109.03l289.67 -47.53 -138.27 -1203.61c-111.14,-27.81 -172.94,-12.92 -263.65,24.24l12.67 222.7c6.07,3.77 15.61,9.11 18.57,10.7l33.96 18.92c9.12,4.46 16.86,3.11 47.85,18.89 -119.9,31.16 -87.13,-22.9 -78.1,90.65 8.56,107.83 -8.01,65.45 107.22,85.74 -82.32,35.93 -67.96,2.12 -83.9,74.55l25.72 252.85c27.08,67.06 -49.32,30.37 94.77,42.76l-68.23 44.15c-78.98,84.4 -0.33,-66.76 -13.75,23.93 -16.1,108.71 57.05,-123.43 26.03,86.73 -1.09,7.41 -6.95,32.12 -8.64,40.43 -15.57,76.63 30.93,-24.54 -23.3,95.63l121.86 9.24z"/>
   <path class="fil28" d="M12297.2 14816.57c90.71,-37.16 152.51,-52.05 263.65,-24.24l138.27 1203.61 -289.67 47.53c37.12,-101.25 0.09,-72.73 100.48,-109.03l-121.86 -9.24c54.23,-120.17 7.73,-19 23.3,-95.63 1.69,-8.31 7.55,-33.02 8.64,-40.43 31.02,-210.16 -42.13,21.98 -26.03,-86.73 13.42,-90.69 -65.23,60.47 13.75,-23.93l68.23 -44.15c-144.09,-12.39 -67.69,24.3 -94.77,-42.76l-25.72 -252.85c15.94,-72.43 1.58,-38.62 83.9,-74.55 -115.23,-20.29 -98.66,22.09 -107.22,-85.74 -9.03,-113.55 -41.8,-59.49 78.1,-90.65 -30.99,-15.78 -38.73,-14.43 -47.85,-18.89l-33.96 -18.92c-2.96,-1.59 -12.5,-6.93 -18.57,-10.7l-12.67 -222.7zm302.66 -89.41l-317.5 7.25 -35.27 -12.64c-88.37,184.16 61.63,1186.12 105.83,1375.83 152.31,12.68 69.61,20.72 186.72,9.69 127.42,-12 114.91,-3.49 201.34,-44.96 87.75,-182.89 -70.56,-1008.04 -70.56,-1305.28l-70.56 -29.89z"/>
   <path class="fil29" d="M8282.17 13894.71c-47.01,99.23 -329.68,-149.35 -404.3,-196.47l59.69 -76.87c81.7,-9.99 123,30.21 204.59,91.18 189.08,141.3 182.56,92.37 140.02,182.16zm-759.03 -285.73c-55.57,141.73 -143.51,239.36 -225.69,363.69 -161.25,243.94 22.48,260.14 95.84,313.53l49.67 47.52 6.35 35.27c7.88,3.91 20.6,0.5 23.81,11.39 3.18,10.79 18.97,9.43 23.07,12.26 63.26,43.71 24.39,15.59 58.95,46.91 243.28,56.68 331.31,340.46 599.72,211.67 24.11,-100.67 -5.35,-53.09 70.56,-105.84l-2.64 -35.27 166.76 -255.69 50.23 -152.82c-68.63,-79.53 -55.4,-58.27 -123.38,-111.89l50.73 -196.84c-81.91,-67.54 -286.63,-220.75 -423.92,-254.16 -86.78,58.37 -50.26,44.44 -126.1,103.68 -76.6,91.6 -81.27,-35.94 -14.71,84.49l559.29 395.17c-5.33,116.52 20.55,30.82 -65.53,74.6 -0.15,103.3 13.99,-15.25 -26.5,75.81 -8.56,19.23 -42.97,94.59 -43.62,96.46 -64.61,68.29 -115.3,147.27 -177,233.19 -62.04,-22.57 -727.71,-380.86 -726.92,-518.09 0.35,-60.72 29.88,-67.39 67.95,-125.23 97.35,-147.93 -12.63,-93.72 144.6,-119.24l26.57 -92.62 50.67 -93.7 134.53 -20.35c-25.54,-25.95 34.21,-54.53 -115.26,-58.57 -33.54,-0.91 -92.64,29.26 -108.03,34.67z"/>
   <path class="fil30" d="M11915.54 6640.7c79.93,-58.9 29.13,-53.17 146.04,-32.81 48.43,117.46 35.87,128.95 -61.44,184.75 -87.52,-47.77 -98.05,-36.33 -84.6,-151.94zm-269.73 849.13c99.8,56.41 2.75,3.52 107.64,30.91 141.1,36.83 22.24,-28.19 140.86,55.7 0,-194.99 71.25,-359.5 53.89,-509.94 30.26,-121.14 9.46,-154.28 122.5,-196.43 47.41,26.93 28.11,31.44 57.44,-15.24l48.39 -52.34c53.51,-111.95 35.28,-87.19 35.28,-229.88 -96.96,-64.92 -127.85,-92.99 -282.22,-105.83 -55.43,48.17 -121.37,85.07 -137.47,183.46 -33.69,205.88 149.44,142.05 6.89,567.9 -33.72,100.71 -56.38,165.62 -81.09,271.69l-72.11 0z"/>
   <path class="fil31" d="M8910.03 12089.91c-34.97,-127.34 78.89,-661.84 202.55,-544.77 80.14,75.87 6.36,245.42 -16.91,349.04 -65.9,293.4 -59.64,212.91 -185.64,195.73zm189.85 -684.25c4.8,-112.62 42.19,-28.65 49.52,-1.31 9.02,33.67 -53.06,84.7 -49.52,1.31zm-47.9 -56.17l-0.55 130.01c-193.82,81.07 -141.77,193.67 -203.9,412.09 -68.13,239.52 -60.5,237.05 49.77,420.16 208.75,-87.26 217.42,-165.61 265.39,-409.8 81.43,49.82 -21.91,37.25 107.03,9.24 -31.76,-108.6 18.45,-78 5.82,-182.77 -9.65,-80.11 -60.15,-99.51 -73.55,-196.11 -20.73,-149.43 108.74,-254.81 -150.01,-182.82z"/>
   <path class="fil32" d="M12044.75 12276.6c111.14,631.81 701.98,312.02 555.83,-48.35l-555.83 48.35z"/>
   <path class="fil33" d="M10162.16 10721.12c-31.84,90.12 -65.65,149.53 -150.79,211.7 -28.61,116.24 -28.81,194.13 30.4,287.48l276.89 185.37c144.25,87.91 249.1,215.22 446.76,206.15 92.11,-72.11 168.61,-154.55 202.54,-281.18 67.69,-185.02 31.81,-54.03 -29.52,-82.28 -53.94,104.23 -130.71,210.54 -208.3,276.08 -151.93,-26.01 -592.97,-344.02 -662.22,-436.28 37.95,-129.95 164.83,-298.69 249.41,-406.54 -18.26,-49.74 96.43,-75.95 -91.04,-27.49l-64.13 66.99z"/>
   <path class="fil34" d="M7880.71 14165.39c-149.19,-20.21 -53.34,32.73 -91.66,-88.96 123.92,55.73 48.75,-41.37 91.66,88.96zm-346.05 -325.84c181.72,276.75 74.85,63.32 232.15,388.33 121.43,-2.43 438.32,2.77 459.22,141.04 0.65,-1.87 35.06,-77.23 43.62,-96.46 40.49,-91.06 26.35,27.49 26.5,-75.81 -20.9,56.39 62.6,-3.32 -35.45,31.53 -216.54,-6.94 -377.34,-192.72 -399.6,-204.24 -317.71,-164.46 -107.59,-84.89 -299.87,-277.01l-26.57 92.62z"/>
   <path class="fil35" d="M12049.68 12224.5l222.27 -31.24 21.5 -211.3 79.85 208.79 223.24 -20.54c-30.77,-115.55 -120.61,-230.08 -278.16,-230.77 -185.36,-0.81 -231.92,112.85 -268.7,285.06z"/>
   <path class="fil36" d="M8910.03 12089.91c126,17.18 119.74,97.67 185.64,-195.73 23.27,-103.62 97.05,-273.17 16.91,-349.04 -123.66,-117.07 -237.52,417.43 -202.55,544.77z"/>
   <path class="fil37" d="M7937.56 13621.37l-59.69 76.87c74.62,47.12 357.29,295.7 404.3,196.47 42.54,-89.79 49.06,-40.86 -140.02,-182.16 -81.59,-60.97 -122.89,-101.17 -204.59,-91.18z"/>
   <path class="fil38" d="M10329.68 10663.97c245.6,31.26 228.99,74.11 340.77,243.29 99.51,150.62 162.5,84.01 249.16,215.47l37.54 91.08c71.32,-108.51 26.16,10.43 43.76,-124.33 -60.62,-61.92 -287.38,-193.81 -315.32,-237.44 -69.67,-108.78 38.18,-65.37 -105.87,-178.02 -71.86,-56.21 -109.39,-68.63 -210.61,-83.53l-39.43 73.48z"/>
   <path class="fil39" d="M15411.7 8105.32l194.33 7.58 18.29 -215.49c-208.13,-40.87 -276.43,20.44 -212.62,207.91z"/>
   <path class="fil40" d="M9881.67 12844.95c94.96,-31.42 208.63,-175.64 251.33,-273.35 49.43,-113.12 28.7,-41.65 -2.58,-111.29 -122.69,48.19 -55.69,25.63 -152.68,169.52 -58,86.04 -88.77,90.32 -96.07,215.12z"/>
   <path class="fil41" d="M14363.75 8440.17c-85,-111.57 33.26,-12.82 -65.85,-70.85 -38.91,-22.78 -63.71,-21.91 -110.53,-32.82 3.8,-170.96 14.02,-110.29 105.83,-235.95 -133.18,45.45 -159.49,121.67 -105.83,265.42 87.1,62.74 50.07,40.82 176.38,74.2z"/>
   <path class="fil42" d="M10239.49 14080.44c-107.8,47.67 -26.49,-23.57 -101.39,76.89l85 91.22c94.54,-120.08 76.73,-63.76 16.39,-168.11z"/>
   <path class="fil43" d="M11948.2 7066.5l122.5 -196.43c-113.04,42.15 -92.24,75.29 -122.5,196.43z"/>
   <path class="fil44" d="M7880.71 14165.39c-42.91,-130.33 32.26,-33.23 -91.66,-88.96 38.32,121.69 -57.53,68.75 91.66,88.96z"/>
   <path class="fil45" d="M9099.88 11405.66c-3.54,83.39 58.54,32.36 49.52,-1.31 -7.33,-27.34 -44.72,-111.31 -49.52,1.31z"/>
   <path class="fil46" d="M14306.58 10052.3c-31.85,-62.97 -5.34,-42.64 -74.3,-57.75l74.3 57.75z"/>
   <path class="fil47" d="M12128.14 6854.83c61.44,-17.7 32.29,9.08 48.39,-52.34l-48.39 52.34z"/>
  </g>
 </g>
</svg>
